<mxfile host="app.diagrams.net" agent="Mozilla/5.0 (Windows NT 10.0; Win64; x64) AppleWebKit/537.36 (KHTML, like Gecko) Chrome/140.0.0.0 Safari/537.36" version="28.2.4">
  <diagram name="Page-1" id="rwzWzy93OpaWQYICMneB">
    <mxGraphModel dx="2278" dy="1777" grid="1" gridSize="20" guides="1" tooltips="1" connect="1" arrows="1" fold="1" page="1" pageScale="1" pageWidth="1100" pageHeight="850" background="light-dark(#FFFFFF,transparent)" math="0" shadow="0">
      <root>
        <mxCell id="0" />
        <mxCell id="1" parent="0" />
        <mxCell id="3h6Te5cmef560C_6Qjrz-24" value="&lt;span style=&quot;font-size: 18px;&quot;&gt;&lt;b&gt;Downstream Analytics&amp;nbsp;&lt;/b&gt;&lt;/span&gt;&lt;div&gt;&lt;b style=&quot;--un-translate-z: 0; --un-pan-x: ; --un-pan-y: ; --un-pinch-zoom: ; --un-scroll-snap-strictness: proximity; --un-ordinal: ; --un-slashed-zero: ; --un-numeric-figure: ; --un-numeric-spacing: ; --un-numeric-fraction: ; --un-border-spacing-x: 0; --un-border-spacing-y: 0; --un-ring-offset-shadow: 0 0 rgb(0 0 0 / 0); --un-ring-shadow: 0 0 rgb(0 0 0 / 0); --un-shadow-inset: ; --un-shadow: 0 0 rgb(0 0 0 / 0); --un-ring-inset: ; --un-ring-offset-width: 0px; --un-ring-offset-color: #fff; --un-ring-width: 0px; --un-ring-color: rgb(147 197 253 / .5); --un-blur: ; --un-brightness: ; --un-contrast: ; --un-drop-shadow: ; --un-grayscale: ; --un-hue-rotate: ; --un-invert: ; --un-saturate: ; --un-sepia: ; --un-backdrop-blur: ; --un-backdrop-brightness: ; --un-backdrop-contrast: ; --un-backdrop-grayscale: ; --un-backdrop-hue-rotate: ; --un-backdrop-invert: ; --un-backdrop-opacity: ; --un-backdrop-saturate: ; --un-backdrop-sepia: ; font-size: 18px;&quot;&gt;(Optional)&lt;/b&gt;&lt;/div&gt;&lt;div&gt;&lt;span style=&quot;font-size: 18px;&quot;&gt;&lt;b&gt;&amp;nbsp;&lt;/b&gt;&lt;/span&gt;&lt;div&gt;&lt;span style=&quot;font-size: 18px;&quot;&gt;&lt;b&gt;&lt;br&gt;&lt;/b&gt;&lt;/span&gt;&lt;/div&gt;&lt;div&gt;&lt;span style=&quot;font-size: 18px;&quot;&gt;&lt;b&gt;&lt;br&gt;&lt;/b&gt;&lt;/span&gt;&lt;/div&gt;&lt;div&gt;&lt;span style=&quot;font-size: 18px;&quot;&gt;&lt;b&gt;&lt;br&gt;&lt;/b&gt;&lt;/span&gt;&lt;/div&gt;&lt;div&gt;&lt;span style=&quot;font-size: 18px;&quot;&gt;&lt;b&gt;&lt;br&gt;&lt;/b&gt;&lt;/span&gt;&lt;/div&gt;&lt;div&gt;&lt;span style=&quot;font-size: 18px;&quot;&gt;&lt;b&gt;&lt;br&gt;&lt;/b&gt;&lt;/span&gt;&lt;/div&gt;&lt;div&gt;&lt;span style=&quot;font-size: 18px;&quot;&gt;&lt;b&gt;&lt;br&gt;&lt;/b&gt;&lt;/span&gt;&lt;/div&gt;&lt;div&gt;&lt;span style=&quot;font-size: 18px;&quot;&gt;&lt;b&gt;&lt;br&gt;&lt;/b&gt;&lt;/span&gt;&lt;/div&gt;&lt;div&gt;&lt;span style=&quot;font-size: 18px;&quot;&gt;&lt;b&gt;&lt;br&gt;&lt;/b&gt;&lt;/span&gt;&lt;/div&gt;&lt;div&gt;&lt;br&gt;&lt;/div&gt;&lt;/div&gt;" style="whiteSpace=wrap;html=1;aspect=fixed;dashed=1;align=center;" parent="1" vertex="1">
          <mxGeometry x="1840" y="-45.000000000000014" width="350" height="350" as="geometry" />
        </mxCell>
        <mxCell id="3h6Te5cmef560C_6Qjrz-20" style="edgeStyle=orthogonalEdgeStyle;rounded=0;orthogonalLoop=1;jettySize=auto;html=1;strokeColor=default;dashed=1;dashPattern=8 8;" parent="1" source="3h6Te5cmef560C_6Qjrz-8" target="3h6Te5cmef560C_6Qjrz-16" edge="1">
          <mxGeometry relative="1" as="geometry" />
        </mxCell>
        <mxCell id="3h6Te5cmef560C_6Qjrz-22" style="edgeStyle=orthogonalEdgeStyle;rounded=0;orthogonalLoop=1;jettySize=auto;html=1;" parent="1" source="3h6Te5cmef560C_6Qjrz-8" target="3h6Te5cmef560C_6Qjrz-21" edge="1">
          <mxGeometry relative="1" as="geometry">
            <mxPoint x="1740" y="180" as="targetPoint" />
          </mxGeometry>
        </mxCell>
        <mxCell id="bFWIxjA4RxtORe7N0rn4-6" style="edgeStyle=orthogonalEdgeStyle;rounded=0;orthogonalLoop=1;jettySize=auto;html=1;" edge="1" parent="1" source="3h6Te5cmef560C_6Qjrz-9" target="bFWIxjA4RxtORe7N0rn4-2">
          <mxGeometry relative="1" as="geometry" />
        </mxCell>
        <mxCell id="3h6Te5cmef560C_6Qjrz-9" value="&lt;span style=&quot;font-size: 18px;&quot;&gt;&lt;b&gt;Process CRM Events&lt;/b&gt;&lt;/span&gt;&lt;div&gt;&lt;span style=&quot;font-size: 18px;&quot;&gt;&lt;b&gt;&lt;br&gt;&lt;/b&gt;&lt;/span&gt;&lt;/div&gt;&lt;div&gt;&lt;span style=&quot;font-size: 18px;&quot;&gt;&lt;b&gt;&lt;br&gt;&lt;/b&gt;&lt;/span&gt;&lt;/div&gt;&lt;div&gt;&lt;span style=&quot;font-size: 18px;&quot;&gt;&lt;b&gt;&lt;br&gt;&lt;/b&gt;&lt;/span&gt;&lt;/div&gt;&lt;div&gt;&lt;span style=&quot;font-size: 18px;&quot;&gt;&lt;b&gt;&lt;br&gt;&lt;/b&gt;&lt;/span&gt;&lt;/div&gt;&lt;div&gt;&lt;span style=&quot;font-size: 18px;&quot;&gt;&lt;b&gt;&lt;br&gt;&lt;/b&gt;&lt;/span&gt;&lt;/div&gt;&lt;div&gt;&lt;span style=&quot;font-size: 18px;&quot;&gt;&lt;b&gt;&lt;br&gt;&lt;/b&gt;&lt;/span&gt;&lt;/div&gt;&lt;div&gt;&lt;span style=&quot;font-size: 18px;&quot;&gt;&lt;b&gt;&lt;br&gt;&lt;/b&gt;&lt;/span&gt;&lt;/div&gt;&lt;div&gt;&lt;span style=&quot;font-size: 18px;&quot;&gt;&lt;b&gt;&lt;br&gt;&lt;/b&gt;&lt;/span&gt;&lt;/div&gt;&lt;div&gt;&lt;span style=&quot;font-size: 18px;&quot;&gt;&lt;b&gt;&lt;br&gt;&lt;/b&gt;&lt;/span&gt;&lt;/div&gt;&lt;div&gt;&lt;span style=&quot;font-size: 18px;&quot;&gt;&lt;b&gt;&lt;br&gt;&lt;/b&gt;&lt;/span&gt;&lt;/div&gt;&lt;div&gt;&lt;span style=&quot;font-size: 18px;&quot;&gt;&lt;b&gt;&lt;br&gt;&lt;/b&gt;&lt;/span&gt;&lt;/div&gt;&lt;div&gt;&lt;span style=&quot;font-size: 18px;&quot;&gt;&lt;b&gt;Enrich the Lead,&lt;/b&gt;&lt;/span&gt;&lt;/div&gt;&lt;div&gt;&lt;span style=&quot;font-size: 18px;&quot;&gt;&lt;b&gt;Send Slack Notification&lt;/b&gt;&lt;/span&gt;&lt;/div&gt;" style="whiteSpace=wrap;html=1;aspect=fixed;dashed=1;fillColor=#ffff88;strokeColor=#36393d;align=center;" parent="1" vertex="1">
          <mxGeometry x="1220" y="250" width="350" height="350" as="geometry" />
        </mxCell>
        <mxCell id="3h6Te5cmef560C_6Qjrz-3" style="edgeStyle=orthogonalEdgeStyle;rounded=0;orthogonalLoop=1;jettySize=auto;html=1;" parent="1" source="m4qAgDCgxIv8DjNnzr-K-6" target="7ErMkeK06-2qZx9VQCFS-12" edge="1">
          <mxGeometry relative="1" as="geometry" />
        </mxCell>
        <mxCell id="m4qAgDCgxIv8DjNnzr-K-6" value="&lt;font style=&quot;font-size: 12px;&quot;&gt;Amazon S3&lt;/font&gt;&lt;div&gt;&lt;font size=&quot;3&quot; style=&quot;&quot;&gt;ak-crm-webhooks&lt;/font&gt;&lt;/div&gt;" style="sketch=0;outlineConnect=0;fontColor=#232F3E;gradientColor=none;strokeColor=#ffffff;fillColor=#232F3E;dashed=0;verticalLabelPosition=middle;verticalAlign=bottom;align=center;html=1;whiteSpace=wrap;fontSize=10;fontStyle=1;spacing=3;shape=mxgraph.aws4.productIcon;prIcon=mxgraph.aws4.s3;" parent="1" vertex="1">
          <mxGeometry x="700" y="300" width="140" height="214.99" as="geometry" />
        </mxCell>
        <mxCell id="3h6Te5cmef560C_6Qjrz-26" style="edgeStyle=orthogonalEdgeStyle;rounded=0;orthogonalLoop=1;jettySize=auto;html=1;" parent="1" source="m4qAgDCgxIv8DjNnzr-K-7" target="3h6Te5cmef560C_6Qjrz-23" edge="1">
          <mxGeometry relative="1" as="geometry" />
        </mxCell>
        <mxCell id="m4qAgDCgxIv8DjNnzr-K-7" value="AWS Glue - (Pyspark)" style="sketch=0;outlineConnect=0;fontColor=#232F3E;gradientColor=none;strokeColor=#ffffff;fillColor=#232F3E;dashed=0;verticalLabelPosition=middle;verticalAlign=bottom;align=center;html=1;whiteSpace=wrap;fontSize=10;fontStyle=1;spacing=3;shape=mxgraph.aws4.productIcon;prIcon=mxgraph.aws4.glue;" parent="1" vertex="1">
          <mxGeometry x="1900.0000000000002" y="50" width="89" height="120" as="geometry" />
        </mxCell>
        <mxCell id="AIjkGTHtsxKVKW9na2vk-2" value="&lt;b&gt;&lt;font style=&quot;font-size: 18px;&quot;&gt;AWS API Gateway - AWS Lambda Integration&lt;/font&gt;&lt;/b&gt;&lt;div&gt;&lt;br&gt;&lt;/div&gt;&lt;div&gt;&lt;br&gt;&lt;/div&gt;&lt;div&gt;&lt;br&gt;&lt;/div&gt;&lt;div&gt;&lt;br&gt;&lt;/div&gt;&lt;div&gt;&lt;br&gt;&lt;/div&gt;&lt;div&gt;&lt;br&gt;&lt;/div&gt;&lt;div&gt;&lt;br&gt;&lt;/div&gt;&lt;div&gt;&lt;br&gt;&lt;/div&gt;&lt;div&gt;&lt;br&gt;&lt;/div&gt;&lt;div&gt;&lt;br&gt;&lt;/div&gt;&lt;div&gt;&lt;br&gt;&lt;/div&gt;&lt;div&gt;&lt;br&gt;&lt;/div&gt;&lt;div&gt;&lt;br&gt;&lt;/div&gt;&lt;div&gt;&lt;br&gt;&lt;/div&gt;&lt;div&gt;&lt;br&gt;&lt;/div&gt;&lt;div&gt;&lt;br&gt;&lt;/div&gt;&lt;div&gt;&lt;br&gt;&lt;/div&gt;&lt;div&gt;&lt;br&gt;&lt;/div&gt;&lt;div&gt;&lt;br&gt;&lt;/div&gt;" style="whiteSpace=wrap;html=1;aspect=fixed;dashed=1;fillColor=#e1d5e7;strokeColor=#9673a6;" parent="1" vertex="1">
          <mxGeometry x="260" y="250" width="350" height="350" as="geometry" />
        </mxCell>
        <mxCell id="3h6Te5cmef560C_6Qjrz-2" style="edgeStyle=orthogonalEdgeStyle;rounded=0;orthogonalLoop=1;jettySize=auto;html=1;" parent="1" source="AIjkGTHtsxKVKW9na2vk-4" target="m4qAgDCgxIv8DjNnzr-K-6" edge="1">
          <mxGeometry relative="1" as="geometry">
            <mxPoint x="670" y="420.11111111111086" as="targetPoint" />
          </mxGeometry>
        </mxCell>
        <mxCell id="AIjkGTHtsxKVKW9na2vk-4" value="&lt;font style=&quot;font-size: 12px;&quot;&gt;ingestionCRMEvents&lt;/font&gt;" style="sketch=0;outlineConnect=0;fontColor=#232F3E;gradientColor=none;strokeColor=#ffffff;fillColor=#232F3E;dashed=0;verticalLabelPosition=middle;verticalAlign=bottom;align=center;html=1;whiteSpace=wrap;fontSize=10;fontStyle=1;spacing=3;shape=mxgraph.aws4.productIcon;prIcon=mxgraph.aws4.lambda;" parent="1" vertex="1">
          <mxGeometry x="470" y="353.25" width="110" height="146.75" as="geometry" />
        </mxCell>
        <mxCell id="7ErMkeK06-2qZx9VQCFS-2" value="&lt;font style=&quot;font-size: 12px;&quot;&gt;&lt;b style=&quot;&quot;&gt;Lead Notification on&amp;nbsp;&lt;/b&gt;&lt;/font&gt;&lt;div&gt;&lt;font style=&quot;font-size: 12px;&quot;&gt;&lt;b style=&quot;&quot;&gt;Slack&lt;/b&gt;&lt;/font&gt;&lt;/div&gt;" style="sketch=0;pointerEvents=1;shadow=0;dashed=0;html=1;strokeColor=none;fillColor=#505050;labelPosition=center;verticalLabelPosition=bottom;verticalAlign=top;outlineConnect=0;align=center;shape=mxgraph.office.communications.push_notification_service;" parent="1" vertex="1">
          <mxGeometry x="1935" y="338.19" width="160" height="160" as="geometry" />
        </mxCell>
        <mxCell id="bFWIxjA4RxtORe7N0rn4-10" style="edgeStyle=orthogonalEdgeStyle;rounded=0;orthogonalLoop=1;jettySize=auto;html=1;" edge="1" parent="1" source="7ErMkeK06-2qZx9VQCFS-4" target="bFWIxjA4RxtORe7N0rn4-9">
          <mxGeometry relative="1" as="geometry" />
        </mxCell>
        <mxCell id="7ErMkeK06-2qZx9VQCFS-4" value="&lt;font style=&quot;font-size: 12px;&quot;&gt;Amazon SNS&lt;/font&gt;" style="sketch=0;outlineConnect=0;fontColor=#232F3E;gradientColor=none;strokeColor=#ffffff;fillColor=#232F3E;dashed=0;verticalLabelPosition=middle;verticalAlign=bottom;align=center;html=1;whiteSpace=wrap;fontSize=10;fontStyle=1;spacing=3;shape=mxgraph.aws4.productIcon;prIcon=mxgraph.aws4.sns;" parent="1" vertex="1">
          <mxGeometry x="940" y="-400" width="100" height="125" as="geometry" />
        </mxCell>
        <mxCell id="3h6Te5cmef560C_6Qjrz-1" style="edgeStyle=orthogonalEdgeStyle;rounded=0;orthogonalLoop=1;jettySize=auto;html=1;" parent="1" source="7ErMkeK06-2qZx9VQCFS-7" target="AIjkGTHtsxKVKW9na2vk-4" edge="1">
          <mxGeometry relative="1" as="geometry" />
        </mxCell>
        <mxCell id="7ErMkeK06-2qZx9VQCFS-7" value="&lt;font style=&quot;font-size: 12px;&quot;&gt;Amazon API Gateway&lt;/font&gt;&lt;div&gt;&lt;font size=&quot;3&quot; style=&quot;&quot;&gt;Route: crm-events/POST&lt;/font&gt;&lt;/div&gt;" style="sketch=0;outlineConnect=0;fontColor=#232F3E;gradientColor=none;strokeColor=#ffffff;fillColor=#232F3E;dashed=0;verticalLabelPosition=middle;verticalAlign=bottom;align=center;html=1;whiteSpace=wrap;fontSize=10;fontStyle=1;spacing=3;shape=mxgraph.aws4.productIcon;prIcon=mxgraph.aws4.api_gateway;" parent="1" vertex="1">
          <mxGeometry x="301" y="320" width="109" height="200" as="geometry" />
        </mxCell>
        <mxCell id="3h6Te5cmef560C_6Qjrz-7" style="edgeStyle=orthogonalEdgeStyle;rounded=0;orthogonalLoop=1;jettySize=auto;html=1;" parent="1" source="7ErMkeK06-2qZx9VQCFS-10" target="7ErMkeK06-2qZx9VQCFS-7" edge="1">
          <mxGeometry relative="1" as="geometry" />
        </mxCell>
        <mxCell id="7ErMkeK06-2qZx9VQCFS-10" value="&lt;font style=&quot;font-size: 18px;&quot;&gt;&lt;b&gt;CRM - Close&lt;/b&gt;&lt;/font&gt;" style="sketch=0;verticalLabelPosition=bottom;sketch=0;aspect=fixed;html=1;verticalAlign=top;strokeColor=none;fillColor=#000000;align=center;outlineConnect=0;pointerEvents=1;shape=mxgraph.citrix2.web_saas_apps;" parent="1" vertex="1">
          <mxGeometry x="60" y="366.16" width="140" height="107.66" as="geometry" />
        </mxCell>
        <mxCell id="7ErMkeK06-2qZx9VQCFS-12" value="&lt;font style=&quot;font-size: 12px;&quot;&gt;Amazon SQS&lt;/font&gt;&lt;div&gt;&lt;font size=&quot;3&quot; style=&quot;&quot;&gt;crm-event-queue&lt;/font&gt;&lt;/div&gt;" style="sketch=0;outlineConnect=0;fontColor=#232F3E;gradientColor=none;strokeColor=#ffffff;fillColor=#232F3E;dashed=0;verticalLabelPosition=middle;verticalAlign=bottom;align=center;html=1;whiteSpace=wrap;fontSize=10;fontStyle=1;spacing=3;shape=mxgraph.aws4.productIcon;prIcon=mxgraph.aws4.sqs;" parent="1" vertex="1">
          <mxGeometry x="940" y="338.19" width="100" height="163.61" as="geometry" />
        </mxCell>
        <mxCell id="3h6Te5cmef560C_6Qjrz-11" style="edgeStyle=orthogonalEdgeStyle;rounded=0;orthogonalLoop=1;jettySize=auto;html=1;exitX=0.5;exitY=0.5;exitDx=0;exitDy=0;exitPerimeter=0;" parent="1" source="3h6Te5cmef560C_6Qjrz-4" target="3h6Te5cmef560C_6Qjrz-8" edge="1">
          <mxGeometry relative="1" as="geometry" />
        </mxCell>
        <mxCell id="3h6Te5cmef560C_6Qjrz-4" value="&lt;b&gt;10-min Delay&lt;/b&gt;" style="html=1;shape=mxgraph.sysml.timeEvent;strokeWidth=2;verticalLabelPosition=bottom;verticalAlignment=top;" parent="1" vertex="1">
          <mxGeometry x="1100" y="390.5" width="60" height="59" as="geometry" />
        </mxCell>
        <mxCell id="3h6Te5cmef560C_6Qjrz-5" style="edgeStyle=orthogonalEdgeStyle;rounded=0;orthogonalLoop=1;jettySize=auto;html=1;entryX=0.5;entryY=0.5;entryDx=0;entryDy=0;entryPerimeter=0;" parent="1" source="7ErMkeK06-2qZx9VQCFS-12" target="3h6Te5cmef560C_6Qjrz-4" edge="1">
          <mxGeometry relative="1" as="geometry" />
        </mxCell>
        <mxCell id="3h6Te5cmef560C_6Qjrz-15" style="edgeStyle=orthogonalEdgeStyle;rounded=0;orthogonalLoop=1;jettySize=auto;html=1;" parent="1" source="3h6Te5cmef560C_6Qjrz-8" target="7ErMkeK06-2qZx9VQCFS-2" edge="1">
          <mxGeometry relative="1" as="geometry" />
        </mxCell>
        <mxCell id="3h6Te5cmef560C_6Qjrz-8" value="ingestionCRMEvents" style="sketch=0;outlineConnect=0;fontColor=#232F3E;gradientColor=none;strokeColor=#ffffff;fillColor=#232F3E;dashed=0;verticalLabelPosition=middle;verticalAlign=bottom;align=center;html=1;whiteSpace=wrap;fontSize=10;fontStyle=1;spacing=3;shape=mxgraph.aws4.productIcon;prIcon=mxgraph.aws4.lambda;" parent="1" vertex="1">
          <mxGeometry x="1340" y="353.24" width="110" height="133.5" as="geometry" />
        </mxCell>
        <mxCell id="3h6Te5cmef560C_6Qjrz-16" value="&lt;font style=&quot;font-size: 12px;&quot;&gt;Amazon Simple Email Service: Fallback Notification&lt;/font&gt;" style="sketch=0;outlineConnect=0;fontColor=#232F3E;gradientColor=none;strokeColor=#ffffff;fillColor=#232F3E;dashed=0;verticalLabelPosition=middle;verticalAlign=bottom;align=center;html=1;whiteSpace=wrap;fontSize=10;fontStyle=1;spacing=3;shape=mxgraph.aws4.productIcon;prIcon=mxgraph.aws4.simple_email_service;" parent="1" vertex="1">
          <mxGeometry x="1920" y="620" width="120" height="200" as="geometry" />
        </mxCell>
        <mxCell id="3h6Te5cmef560C_6Qjrz-25" style="edgeStyle=orthogonalEdgeStyle;rounded=0;orthogonalLoop=1;jettySize=auto;html=1;" parent="1" source="3h6Te5cmef560C_6Qjrz-21" target="m4qAgDCgxIv8DjNnzr-K-7" edge="1">
          <mxGeometry relative="1" as="geometry" />
        </mxCell>
        <mxCell id="3h6Te5cmef560C_6Qjrz-21" value="&lt;font style=&quot;font-size: 12px;&quot;&gt;Amazon S3&lt;/font&gt;&lt;div&gt;&lt;font style=&quot;font-size: 12px;&quot;&gt;ak-crm-webhooks/enriched/&lt;/font&gt;&lt;/div&gt;" style="sketch=0;outlineConnect=0;fontColor=#232F3E;gradientColor=none;strokeColor=#ffffff;fillColor=#232F3E;dashed=0;verticalLabelPosition=middle;verticalAlign=bottom;align=center;html=1;whiteSpace=wrap;fontSize=10;fontStyle=1;spacing=3;shape=mxgraph.aws4.productIcon;prIcon=mxgraph.aws4.s3;" parent="1" vertex="1">
          <mxGeometry x="1620" y="15" width="140" height="190" as="geometry" />
        </mxCell>
        <mxCell id="3h6Te5cmef560C_6Qjrz-23" value="Amazon QuickSight" style="sketch=0;outlineConnect=0;fontColor=#232F3E;gradientColor=none;strokeColor=#ffffff;fillColor=#232F3E;dashed=0;verticalLabelPosition=middle;verticalAlign=bottom;align=center;html=1;whiteSpace=wrap;fontSize=10;fontStyle=1;spacing=3;shape=mxgraph.aws4.productIcon;prIcon=mxgraph.aws4.quicksight;" parent="1" vertex="1">
          <mxGeometry x="2040.0000000000002" y="47.5" width="94.22" height="125" as="geometry" />
        </mxCell>
        <mxCell id="bFWIxjA4RxtORe7N0rn4-4" style="edgeStyle=orthogonalEdgeStyle;rounded=0;orthogonalLoop=1;jettySize=auto;html=1;" edge="1" parent="1" source="bFWIxjA4RxtORe7N0rn4-1" target="7ErMkeK06-2qZx9VQCFS-12">
          <mxGeometry relative="1" as="geometry" />
        </mxCell>
        <mxCell id="bFWIxjA4RxtORe7N0rn4-13" style="edgeStyle=orthogonalEdgeStyle;rounded=0;orthogonalLoop=1;jettySize=auto;html=1;" edge="1" parent="1" source="bFWIxjA4RxtORe7N0rn4-1" target="bFWIxjA4RxtORe7N0rn4-11">
          <mxGeometry relative="1" as="geometry" />
        </mxCell>
        <mxCell id="bFWIxjA4RxtORe7N0rn4-1" value="&lt;font style=&quot;font-size: 12px;&quot;&gt;Amazon SQS&lt;/font&gt;&lt;div&gt;&lt;font style=&quot;font-size: 12px;&quot;&gt;crm-dlq&lt;/font&gt;&lt;/div&gt;" style="sketch=0;outlineConnect=0;fontColor=#232F3E;gradientColor=none;strokeColor=#ffffff;fillColor=#232F3E;dashed=0;verticalLabelPosition=middle;verticalAlign=bottom;align=center;html=1;whiteSpace=wrap;fontSize=10;fontStyle=1;spacing=3;shape=mxgraph.aws4.productIcon;prIcon=mxgraph.aws4.sqs;" vertex="1" parent="1">
          <mxGeometry x="940" y="41.39" width="100" height="163.61" as="geometry" />
        </mxCell>
        <mxCell id="bFWIxjA4RxtORe7N0rn4-7" style="edgeStyle=orthogonalEdgeStyle;rounded=0;orthogonalLoop=1;jettySize=auto;html=1;" edge="1" parent="1" source="bFWIxjA4RxtORe7N0rn4-2" target="bFWIxjA4RxtORe7N0rn4-1">
          <mxGeometry relative="1" as="geometry" />
        </mxCell>
        <mxCell id="bFWIxjA4RxtORe7N0rn4-2" value="Failure Procesing" style="sketch=0;verticalLabelPosition=bottom;sketch=0;aspect=fixed;html=1;verticalAlign=top;strokeColor=none;fillColor=#000000;align=center;outlineConnect=0;pointerEvents=1;shape=mxgraph.citrix2.authentication_failure;" vertex="1" parent="1">
          <mxGeometry x="1370" y="98.2" width="50" height="50" as="geometry" />
        </mxCell>
        <mxCell id="bFWIxjA4RxtORe7N0rn4-9" value="Receive Email Notification - &#39;In Alarm&quot;" style="verticalLabelPosition=bottom;html=1;verticalAlign=top;strokeWidth=1;align=center;outlineConnect=0;dashed=0;outlineConnect=0;shape=mxgraph.aws3d.email;aspect=fixed;strokeColor=#292929;" vertex="1" parent="1">
          <mxGeometry x="1357.28" y="-387.5" width="75.44" height="100" as="geometry" />
        </mxCell>
        <mxCell id="bFWIxjA4RxtORe7N0rn4-14" style="edgeStyle=orthogonalEdgeStyle;rounded=0;orthogonalLoop=1;jettySize=auto;html=1;" edge="1" parent="1" source="bFWIxjA4RxtORe7N0rn4-11" target="7ErMkeK06-2qZx9VQCFS-4">
          <mxGeometry relative="1" as="geometry" />
        </mxCell>
        <mxCell id="bFWIxjA4RxtORe7N0rn4-11" value="&lt;div&gt;&lt;font style=&quot;font-size: 12px;&quot;&gt;&lt;br&gt;&lt;/font&gt;&lt;/div&gt;&lt;div&gt;&lt;font size=&quot;3&quot;&gt;&lt;br&gt;&lt;/font&gt;&lt;/div&gt;&lt;div&gt;&lt;font size=&quot;3&quot;&gt;&lt;br&gt;&lt;/font&gt;&lt;/div&gt;&lt;div&gt;&lt;font size=&quot;3&quot;&gt;&lt;br&gt;&lt;/font&gt;&lt;/div&gt;&lt;font size=&quot;3&quot;&gt;Amazon CloudWatch - Alarm for Number of Visible Messages in DLQ&lt;/font&gt;" style="sketch=0;outlineConnect=0;fontColor=#232F3E;gradientColor=none;strokeColor=#ffffff;fillColor=#232F3E;dashed=0;verticalLabelPosition=middle;verticalAlign=bottom;align=center;html=1;whiteSpace=wrap;fontSize=10;fontStyle=1;spacing=3;shape=mxgraph.aws4.productIcon;prIcon=mxgraph.aws4.cloudwatch;" vertex="1" parent="1">
          <mxGeometry x="940" y="-240" width="100" height="240" as="geometry" />
        </mxCell>
      </root>
    </mxGraphModel>
  </diagram>
</mxfile>
